<svg width="1728" height="1117" viewBox="0 0 1728 1117" fill="none" xmlns="http://www.w3.org/2000/svg">
<g clip-path="url(#clip0_179_565)">
<rect width="1728" height="1117" fill="#020817"/>
<g filter="url(#filter0_f_179_565)">
<circle cx="1555" cy="253" r="455" fill="#0C318D" fill-opacity="0.4"/>
</g>
<g filter="url(#filter1_f_179_565)">
<circle cx="152.5" cy="736.5" r="317.5" fill="#0C318D" fill-opacity="0.4"/>
</g>
<path d="M460.775 546L423.569 434.7H449.009L466.817 497.664C468.566 504.024 470.315 510.543 471.269 516.744C472.064 510.543 473.654 503.865 475.88 497.664L497.981 434.7H518.015L540.116 497.664C542.342 503.865 544.091 510.543 545.045 516.744C545.84 510.543 547.43 504.024 549.179 497.664L566.987 434.7H592.427L555.221 546H535.187L512.609 483.195C510.542 477.312 508.952 470.952 507.998 464.91C507.044 470.952 505.454 477.312 503.387 483.195L480.809 546H460.775ZM597.347 546V429.93H618.812V474.768C623.264 465.864 631.373 461.412 643.775 461.412C661.583 461.412 675.257 474.609 675.257 495.438V546H653.792V500.685C653.792 486.375 646.637 480.174 635.984 480.174C626.921 480.174 618.812 486.375 618.812 500.685V546H597.347ZM724.934 548.067C702.197 548.067 684.071 528.828 684.071 504.978C684.071 481.128 702.197 461.571 724.934 461.571C739.244 461.571 746.717 467.454 751.169 476.358V463.32H772.475V546H751.646V532.485C747.194 541.866 739.721 548.067 724.934 548.067ZM705.536 504.819C705.536 517.38 714.758 528.669 728.432 528.669C742.583 528.669 751.646 517.857 751.646 504.978C751.646 492.099 742.583 480.969 728.432 480.969C714.758 480.969 705.536 491.94 705.536 504.819ZM816.551 546C800.174 546 791.27 538.368 791.27 520.401V481.605H779.663V463.32H791.27V446.625L812.735 444.399V463.32H830.225V481.605H812.735V519.288C812.735 524.535 815.279 526.92 819.413 526.92H828.317V546H816.551ZM469.043 739.067C446.306 739.067 428.18 719.828 428.18 695.978C428.18 672.128 446.306 652.571 469.043 652.571C483.353 652.571 490.826 658.454 495.278 667.358V654.32H516.584V737H495.755V723.485C491.303 732.866 483.83 739.067 469.043 739.067ZM449.645 695.819C449.645 708.38 458.867 719.669 472.541 719.669C486.692 719.669 495.755 708.857 495.755 695.978C495.755 683.099 486.692 671.969 472.541 671.969C458.867 671.969 449.645 682.94 449.645 695.819ZM529.338 737V654.32H550.167V670.061C553.029 658.136 561.456 651.617 575.766 652.412V672.605H572.745C560.343 672.605 550.803 680.873 550.803 694.706V737H529.338ZM618.461 739.067C592.862 739.067 575.69 719.669 575.69 695.819C575.69 671.969 593.657 652.253 618.461 652.253C643.265 652.253 660.437 671.969 660.437 695.819C660.437 698.204 660.278 700.748 659.801 703.451H597.95C600.335 713.15 607.649 719.987 618.461 719.987C627.683 719.987 634.838 715.217 638.654 708.857L655.349 721.418C648.671 731.753 634.838 739.067 618.461 739.067ZM597.95 687.392H638.813C636.428 678.17 628.637 670.697 618.143 670.697C607.967 670.697 600.335 677.534 597.95 687.392ZM702.975 770.231C698.682 770.231 692.958 769.913 688.665 768.641L691.845 748.13C695.025 748.925 698.046 749.243 701.544 749.243C709.812 749.243 715.059 743.996 717.444 736.682L718.557 733.184L685.803 654.32H711.72L727.779 701.543C729.21 705.518 730.482 710.447 731.277 714.74C732.072 710.447 733.344 705.518 734.775 701.543L750.834 654.32H776.274L739.704 742.247C732.708 758.942 722.373 770.231 702.975 770.231ZM815.843 739.067C790.244 739.067 771.8 719.669 771.8 695.819C771.8 671.969 790.244 652.412 815.843 652.412C841.442 652.412 859.886 671.969 859.886 695.819C859.886 719.669 841.442 739.067 815.843 739.067ZM793.265 695.819C793.265 708.698 802.169 719.51 815.843 719.51C829.517 719.51 838.421 708.698 838.421 695.819C838.421 682.94 829.517 671.969 815.843 671.969C802.169 671.969 793.265 682.94 793.265 695.819ZM900.073 738.908C882.265 738.908 868.591 725.711 868.591 704.882V654.32H890.056V699.635C890.056 713.945 895.939 720.146 906.592 720.146C915.655 720.146 923.764 713.945 923.764 699.635V654.32H945.229V737H924.4V724.598C920.425 734.138 912.952 738.908 900.073 738.908ZM462.047 929.908C444.239 929.908 430.565 916.711 430.565 895.882V845.32H452.03V890.635C452.03 904.945 457.913 911.146 468.566 911.146C477.629 911.146 485.738 904.945 485.738 890.635V845.32H507.203V928H486.374V915.598C482.399 925.138 474.926 929.908 462.047 929.908ZM519.866 959.8V845.32H541.013V858.676C545.465 849.613 552.938 843.571 567.407 843.571C590.144 843.571 608.27 863.128 608.27 886.978C608.27 910.828 590.144 930.067 567.407 930.067C553.256 930.067 545.783 924.343 541.331 915.757V959.8H519.866ZM540.695 886.978C540.695 899.857 549.758 910.669 563.909 910.669C577.583 910.669 586.805 899.38 586.805 886.819C586.805 873.94 577.583 862.969 563.909 862.969C549.758 862.969 540.695 874.099 540.695 886.978ZM673.855 928C657.478 928 648.574 920.368 648.574 902.401V863.605H636.967V845.32H648.574V828.625L670.039 826.399V845.32H687.529V863.605H670.039V901.288C670.039 906.535 672.583 908.92 676.717 908.92H685.621V928H673.855ZM733.393 930.067C707.794 930.067 689.35 910.669 689.35 886.819C689.35 862.969 707.794 843.412 733.393 843.412C758.992 843.412 777.436 862.969 777.436 886.819C777.436 910.669 758.992 930.067 733.393 930.067ZM710.815 886.819C710.815 899.698 719.719 910.51 733.393 910.51C747.067 910.51 755.971 899.698 755.971 886.819C755.971 873.94 747.067 862.969 733.393 862.969C719.719 862.969 710.815 873.94 710.815 886.819ZM842.948 928C826.571 928 817.667 920.368 817.667 902.401V863.605H806.06V845.32H817.667V828.625L839.132 826.399V845.32H856.622V863.605H839.132V901.288C839.132 906.535 841.676 908.92 845.81 908.92H854.714V928H842.948ZM902.486 930.067C876.887 930.067 858.443 910.669 858.443 886.819C858.443 862.969 876.887 843.412 902.486 843.412C928.085 843.412 946.529 862.969 946.529 886.819C946.529 910.669 928.085 930.067 902.486 930.067ZM879.908 886.819C879.908 899.698 888.812 910.51 902.486 910.51C916.16 910.51 925.064 899.698 925.064 886.819C925.064 873.94 916.16 862.969 902.486 862.969C888.812 862.969 879.908 873.94 879.908 886.819ZM992.936 930.067C970.199 930.067 952.073 910.828 952.073 886.978C952.073 863.128 970.199 843.571 992.936 843.571C1007.09 843.571 1014.56 849.295 1019.01 858.04V811.93H1040.48V928H1019.65V914.485C1015.2 923.866 1007.72 930.067 992.936 930.067ZM973.538 886.819C973.538 899.38 982.76 910.669 996.434 910.669C1010.58 910.669 1019.65 899.857 1019.65 886.978C1019.65 874.099 1010.58 862.969 996.434 862.969C982.76 862.969 973.538 873.94 973.538 886.819ZM1090.91 930.067C1068.18 930.067 1050.05 910.828 1050.05 886.978C1050.05 863.128 1068.18 843.571 1090.91 843.571C1105.22 843.571 1112.7 849.454 1117.15 858.358V845.32H1138.45V928H1117.63V914.485C1113.17 923.866 1105.7 930.067 1090.91 930.067ZM1071.52 886.819C1071.52 899.38 1080.74 910.669 1094.41 910.669C1108.56 910.669 1117.63 899.857 1117.63 886.978C1117.63 874.099 1108.56 862.969 1094.41 862.969C1080.74 862.969 1071.52 873.94 1071.52 886.819ZM1159.63 961.231C1155.34 961.231 1149.62 960.913 1145.32 959.641L1148.5 939.13C1151.68 939.925 1154.71 940.243 1158.2 940.243C1166.47 940.243 1171.72 934.996 1174.1 927.682L1175.22 924.184L1142.46 845.32H1168.38L1184.44 892.543C1185.87 896.518 1187.14 901.447 1187.94 905.74C1188.73 901.447 1190 896.518 1191.43 892.543L1207.49 845.32H1232.93L1196.36 933.247C1189.37 949.942 1179.03 961.231 1159.63 961.231ZM1259.02 863.923C1260.93 864.877 1263.79 865.354 1266.97 865.354C1279.21 865.354 1285.41 857.881 1285.41 848.5C1285.41 840.868 1280.8 833.872 1271.42 833.872C1261.4 833.872 1255.84 838.642 1255.84 848.5H1234.37C1234.37 827.194 1248.53 814.633 1271.42 814.633C1294.48 814.633 1306.88 829.579 1306.88 847.546C1306.88 859.789 1300.84 876.325 1278.74 879.982L1277.15 897.313H1262.2L1259.02 863.923ZM1255.04 916.075C1255.04 908.602 1261.09 902.242 1269.35 902.242C1277.62 902.242 1283.51 908.602 1283.51 916.075C1283.51 923.707 1277.62 930.067 1269.35 930.067C1261.09 930.067 1255.04 923.707 1255.04 916.075Z" fill="white"/>
</g>
<defs>
<filter id="filter0_f_179_565" x="500" y="-802" width="2110" height="2110" filterUnits="userSpaceOnUse" color-interpolation-filters="sRGB">
<feFlood flood-opacity="0" result="BackgroundImageFix"/>
<feBlend mode="normal" in="SourceGraphic" in2="BackgroundImageFix" result="shape"/>
<feGaussianBlur stdDeviation="300" result="effect1_foregroundBlur_179_565"/>
</filter>
<filter id="filter1_f_179_565" x="-565" y="19" width="1435" height="1435" filterUnits="userSpaceOnUse" color-interpolation-filters="sRGB">
<feFlood flood-opacity="0" result="BackgroundImageFix"/>
<feBlend mode="normal" in="SourceGraphic" in2="BackgroundImageFix" result="shape"/>
<feGaussianBlur stdDeviation="200" result="effect1_foregroundBlur_179_565"/>
</filter>
<clipPath id="clip0_179_565">
<rect width="1728" height="1117" fill="white"/>
</clipPath>
</defs>
</svg>
