<svg width="1728" height="1117" viewBox="0 0 1728 1117" fill="none" xmlns="http://www.w3.org/2000/svg">
<g clip-path="url(#clip0_236_186)">
<rect width="1728" height="1117" fill="#020817"/>
<g filter="url(#filter0_f_236_186)">
<circle cx="1555" cy="253" r="455" fill="#0C318D" fill-opacity="0.4"/>
</g>
<g filter="url(#filter1_f_236_186)">
<circle cx="152.5" cy="736.5" r="317.5" fill="#0C318D" fill-opacity="0.4"/>
</g>
<path d="M780.043 612.067C757.306 612.067 739.18 592.828 739.18 568.978C739.18 545.128 757.306 525.571 780.043 525.571C794.353 525.571 801.826 531.454 806.278 540.358V527.32H827.584V610H806.755V596.485C802.303 605.866 794.83 612.067 780.043 612.067ZM760.645 568.819C760.645 581.38 769.867 592.669 783.541 592.669C797.692 592.669 806.755 581.857 806.755 568.978C806.755 556.099 797.692 544.969 783.541 544.969C769.867 544.969 760.645 555.94 760.645 568.819ZM880.565 643.867C863.87 643.867 850.832 639.892 840.974 628.285L854.33 612.544C862.121 621.448 870.389 623.992 880.724 623.992C892.172 623.992 902.189 614.611 902.189 601.414V597.757C897.737 605.389 890.582 610.477 877.226 610.477C854.489 610.477 837.158 591.715 837.158 567.865C837.158 544.015 854.489 525.253 877.226 525.253C890.9 525.253 898.214 530.5 902.507 538.609V527.32H923.654V602.686C923.654 628.126 905.846 643.867 880.565 643.867ZM858.623 567.865C858.623 580.426 866.732 590.92 880.724 590.92C894.875 590.92 903.143 580.744 903.143 567.865C903.143 554.986 894.875 544.81 880.724 544.81C866.732 544.81 858.623 554.986 858.623 567.865ZM975.888 612.067C950.289 612.067 933.117 592.669 933.117 568.819C933.117 544.969 951.084 525.253 975.888 525.253C1000.69 525.253 1017.86 544.969 1017.86 568.819C1017.86 571.204 1017.7 573.748 1017.23 576.451H955.377C957.762 586.15 965.076 592.987 975.888 592.987C985.11 592.987 992.265 588.217 996.081 581.857L1012.78 594.418C1006.1 604.753 992.265 612.067 975.888 612.067ZM955.377 560.392H996.24C993.855 551.17 986.064 543.697 975.57 543.697C965.394 543.697 957.762 550.534 955.377 560.392ZM1027.29 610V527.32H1048.43V539.404C1052.73 530.182 1060.99 525.412 1073.71 525.412C1091.52 525.412 1105.2 538.609 1105.2 559.438V610H1083.73V564.685C1083.73 550.375 1076.58 544.174 1065.92 544.174C1056.86 544.174 1048.75 550.375 1048.75 564.685V610H1027.29ZM1154.87 612.067C1132.14 612.067 1114.01 592.828 1114.01 568.978C1114.01 545.128 1132.14 525.571 1154.87 525.571C1169.02 525.571 1176.5 531.295 1180.95 540.04V493.93H1202.41V610H1181.59V596.485C1177.13 605.866 1169.66 612.067 1154.87 612.067ZM1135.48 568.819C1135.48 581.38 1144.7 592.669 1158.37 592.669C1172.52 592.669 1181.59 581.857 1181.59 568.978C1181.59 556.099 1172.52 544.969 1158.37 544.969C1144.7 544.969 1135.48 555.94 1135.48 568.819ZM1256.03 612.067C1230.43 612.067 1211.99 592.669 1211.99 568.819C1211.99 544.969 1230.43 525.412 1256.03 525.412C1281.63 525.412 1300.07 544.969 1300.07 568.819C1300.07 592.669 1281.63 612.067 1256.03 612.067ZM1233.45 568.819C1233.45 581.698 1242.36 592.51 1256.03 592.51C1269.7 592.51 1278.61 581.698 1278.61 568.819C1278.61 555.94 1269.7 544.969 1256.03 544.969C1242.36 544.969 1233.45 555.94 1233.45 568.819Z" fill="white"/>
<g filter="url(#filter2_b_236_186)">
<path d="M527 600.875C527 598.041 529.291 595.744 532.117 595.744H705.765C708.591 595.744 710.882 598.041 710.882 600.875V644.869C710.882 647.703 708.591 650 705.765 650H532.117C529.291 650 527 647.703 527 644.869V600.875Z" fill="white"/>
<path d="M656.403 537.185C656.403 534.351 658.694 532.054 661.52 532.054H705.883C708.709 532.054 711 534.351 711 537.185V580.957C711 583.791 708.709 586.088 705.883 586.088H661.52C658.694 586.088 656.403 583.791 656.403 580.957V537.185Z" fill="white"/>
<path d="M527.354 537.185C527.354 534.351 529.645 532.054 532.471 532.054H641.004C643.83 532.054 646.121 534.351 646.121 537.185V580.957C646.121 583.791 643.83 586.088 641.004 586.088H532.471C529.645 586.088 527.354 583.791 527.354 580.957V537.185Z" fill="white"/>
<path d="M592.233 472.842C592.233 470.008 594.524 467.711 597.35 467.711H705.883C708.709 467.711 711 470.008 711 472.842V516.614C711 519.448 708.709 521.745 705.883 521.745H597.35C594.524 521.745 592.233 519.448 592.233 516.614V472.842Z" fill="white"/>
<path d="M527 472.131C527 469.297 529.291 467 532.117 467H576.48C579.306 467 581.597 469.297 581.597 472.131V516.614C581.597 519.448 579.306 521.745 576.48 521.745H532.117C529.291 521.745 527 519.448 527 516.614V472.131Z" fill="white"/>
</g>
</g>
<defs>
<filter id="filter0_f_236_186" x="500" y="-802" width="2110" height="2110" filterUnits="userSpaceOnUse" color-interpolation-filters="sRGB">
<feFlood flood-opacity="0" result="BackgroundImageFix"/>
<feBlend mode="normal" in="SourceGraphic" in2="BackgroundImageFix" result="shape"/>
<feGaussianBlur stdDeviation="300" result="effect1_foregroundBlur_236_186"/>
</filter>
<filter id="filter1_f_236_186" x="-565" y="19" width="1435" height="1435" filterUnits="userSpaceOnUse" color-interpolation-filters="sRGB">
<feFlood flood-opacity="0" result="BackgroundImageFix"/>
<feBlend mode="normal" in="SourceGraphic" in2="BackgroundImageFix" result="shape"/>
<feGaussianBlur stdDeviation="200" result="effect1_foregroundBlur_236_186"/>
</filter>
<filter id="filter2_b_236_186" x="497" y="437" width="244" height="243" filterUnits="userSpaceOnUse" color-interpolation-filters="sRGB">
<feFlood flood-opacity="0" result="BackgroundImageFix"/>
<feGaussianBlur in="BackgroundImageFix" stdDeviation="15"/>
<feComposite in2="SourceAlpha" operator="in" result="effect1_backgroundBlur_236_186"/>
<feBlend mode="normal" in="SourceGraphic" in2="effect1_backgroundBlur_236_186" result="shape"/>
</filter>
<clipPath id="clip0_236_186">
<rect width="1728" height="1117" fill="white"/>
</clipPath>
</defs>
</svg>
