<svg width="1728" height="1117" viewBox="0 0 1728 1117" fill="none" xmlns="http://www.w3.org/2000/svg">
<g clip-path="url(#clip0_516_207)">
<rect width="1728" height="1117" fill="#020817"/>
<g filter="url(#filter0_f_516_207)">
<circle cx="1555" cy="253" r="455" fill="#0C318D" fill-opacity="0.4"/>
</g>
<g filter="url(#filter1_f_516_207)">
<circle cx="152.5" cy="736.5" r="317.5" fill="#0C318D" fill-opacity="0.4"/>
</g>
<rect x="1345" y="1024" width="184" height="84" rx="9" fill="white" fill-opacity="0.56"/>
<rect x="845" y="922.5" width="384" height="84" rx="9" fill="white" fill-opacity="0.56"/>
<rect x="1245" y="922.5" width="84" height="84" rx="9" fill="white" fill-opacity="0.56"/>
<rect x="1345" y="922.5" width="84" height="84" rx="9" fill="white" fill-opacity="0.56"/>
<rect x="1445" y="922.5" width="184" height="84" rx="9" fill="white" fill-opacity="0.56"/>
<rect x="845" y="821" width="184" height="84" rx="9" fill="white" fill-opacity="0.56"/>
<rect x="1045" y="821" width="184" height="84" rx="9" fill="white" fill-opacity="0.56"/>
<rect x="1245" y="821" width="284" height="84" rx="9" fill="white" fill-opacity="0.56"/>
<rect x="745" y="719.5" width="84" height="84" rx="9" fill="white" fill-opacity="0.56"/>
<rect x="845" y="719.5" width="384" height="84" rx="9" fill="white" fill-opacity="0.56"/>
<rect x="1245" y="719.5" width="184" height="84" rx="9" fill="white" fill-opacity="0.56"/>
<rect x="545.5" y="618" width="184" height="84" rx="9" fill="white" fill-opacity="0.56"/>
<rect x="745.5" y="618" width="84" height="84" rx="9" fill="white" fill-opacity="0.56"/>
<rect x="845.5" y="618" width="84" height="84" rx="9" fill="white" fill-opacity="0.56"/>
<rect x="945.5" y="618" width="184" height="84" rx="9" fill="white" fill-opacity="0.56"/>
<rect x="1145.5" y="618" width="134" height="84" rx="9" fill="white" fill-opacity="0.56"/>
<rect x="1295.5" y="618" width="134" height="84" rx="9" fill="white" fill-opacity="0.56"/>
<rect x="545" y="516.5" width="84" height="84" rx="9" fill="white" fill-opacity="0.56"/>
<rect x="645" y="516.5" width="84" height="84" rx="9" fill="white" fill-opacity="0.56"/>
<rect x="745" y="516.5" width="84" height="84" rx="9" fill="white" fill-opacity="0.56"/>
<rect x="845" y="516.5" width="84" height="84" rx="9" fill="white" fill-opacity="0.56"/>
<rect x="945" y="516.5" width="334" height="84" rx="9" fill="white" fill-opacity="0.56"/>
<rect x="1295" y="516.5" width="134" height="84" rx="9" fill="white" fill-opacity="0.56"/>
<rect x="446" y="415" width="284" height="84" rx="9" fill="white" fill-opacity="0.56"/>
<rect x="746" y="415" width="84" height="84" rx="9" fill="white" fill-opacity="0.56"/>
<rect x="846" y="415" width="184" height="84" rx="9" fill="white" fill-opacity="0.56"/>
<rect x="1046" y="415" width="84" height="84" rx="9" fill="white" fill-opacity="0.56"/>
<rect x="1146" y="415" width="84" height="84" rx="9" fill="white" fill-opacity="0.56"/>
<rect x="1246" y="415" width="84" height="84" rx="9" fill="white" fill-opacity="0.56"/>
<rect x="445" y="314" width="284" height="84" rx="9" fill="white" fill-opacity="0.56"/>
<rect x="745" y="314" width="84" height="84" rx="9" fill="white" fill-opacity="0.56"/>
<rect x="845" y="314" width="134" height="84" rx="9" fill="white" fill-opacity="0.56"/>
<rect x="995" y="314" width="84" height="84" rx="9" fill="white" fill-opacity="0.56"/>
<rect x="1095" y="314" width="234" height="84" rx="9" fill="white" fill-opacity="0.56"/>
<rect x="445" y="213" width="284" height="84" rx="9" fill="white" fill-opacity="0.56"/>
<rect x="745" y="213" width="84" height="84" rx="9" fill="white" fill-opacity="0.56"/>
<rect x="845" y="213" width="284" height="84" rx="9" fill="white" fill-opacity="0.56"/>
<rect x="1145" y="213" width="184" height="84" rx="9" fill="white" fill-opacity="0.56"/>
<rect x="345" y="110.5" width="134" height="84" rx="9" fill="white" fill-opacity="0.56"/>
<rect x="495" y="110.5" width="134" height="84" rx="9" fill="white" fill-opacity="0.56"/>
<rect x="645" y="110.5" width="84" height="84" rx="9" fill="white" fill-opacity="0.56"/>
<rect x="745" y="110.5" width="84" height="84" rx="9" fill="white" fill-opacity="0.56"/>
<rect x="845" y="110.5" width="84" height="84" rx="9" fill="white" fill-opacity="0.56"/>
<rect x="945" y="110.5" width="84" height="84" rx="9" fill="white" fill-opacity="0.56"/>
<rect x="1045" y="110.5" width="184" height="84" rx="9" fill="white" fill-opacity="0.56"/>
<rect x="245" y="9" width="184" height="84" rx="9" fill="white" fill-opacity="0.56"/>
<rect x="445" y="9" width="184" height="84" rx="9" fill="white" fill-opacity="0.56"/>
<rect x="645" y="9" width="184" height="84" rx="9" fill="white" fill-opacity="0.56"/>
</g>
<defs>
<filter id="filter0_f_516_207" x="500" y="-802" width="2110" height="2110" filterUnits="userSpaceOnUse" color-interpolation-filters="sRGB">
<feFlood flood-opacity="0" result="BackgroundImageFix"/>
<feBlend mode="normal" in="SourceGraphic" in2="BackgroundImageFix" result="shape"/>
<feGaussianBlur stdDeviation="300" result="effect1_foregroundBlur_516_207"/>
</filter>
<filter id="filter1_f_516_207" x="-565" y="19" width="1435" height="1435" filterUnits="userSpaceOnUse" color-interpolation-filters="sRGB">
<feFlood flood-opacity="0" result="BackgroundImageFix"/>
<feBlend mode="normal" in="SourceGraphic" in2="BackgroundImageFix" result="shape"/>
<feGaussianBlur stdDeviation="200" result="effect1_foregroundBlur_516_207"/>
</filter>
<clipPath id="clip0_516_207">
<rect width="1728" height="1117" fill="white"/>
</clipPath>
</defs>
</svg>
